<svg width="192" height="192" viewBox="0 0 192 192" fill="none" xmlns="http://www.w3.org/2000/svg">
<rect width="192" height="192" fill="white"/>
<path d="M72.6166 52.1558C80.8016 43.9708 84.8941 39.8783 89.6133 38.345C93.7644 36.9962 98.236 36.9962 102.387 38.345C107.106 39.8783 111.199 43.9708 119.384 52.1558L139.844 72.6165C148.029 80.8015 152.122 84.894 153.655 89.6132C155.004 93.7643 155.004 98.2358 153.655 102.387C152.122 107.106 148.029 111.199 139.844 119.384L119.384 139.844C111.199 148.029 107.106 152.122 102.387 153.655C98.236 155.004 93.7644 155.004 89.6133 153.655C84.8941 152.122 80.8016 148.029 72.6166 139.844L68.7698 135.532C66.4419 132.922 65.278 131.617 64.4481 130.133C63.7121 128.817 63.1721 127.4 62.8452 125.928C62.4766 124.268 62.4766 122.519 62.4766 119.022L62.4766 72.9781C62.4766 69.4809 62.4766 67.7324 62.8452 66.0724C63.1721 64.6002 63.7121 63.1836 64.4481 61.8673C65.278 60.3832 66.4419 59.0783 68.7698 56.4685L72.6166 52.1558Z" fill="url(#paint0_radial_6302_65830)"/>
<path d="M72.6166 52.1558C80.8016 43.9708 84.8941 39.8783 89.6133 38.345C93.7644 36.9962 98.236 36.9962 102.387 38.345C107.106 39.8783 111.199 43.9708 119.384 52.1558L139.844 72.6165C148.029 80.8015 152.122 84.894 153.655 89.6132C155.004 93.7643 155.004 98.2358 153.655 102.387C152.122 107.106 148.029 111.199 139.844 119.384L119.384 139.844C111.199 148.029 107.106 152.122 102.387 153.655C98.236 155.004 93.7644 155.004 89.6133 153.655C84.8941 152.122 80.8016 148.029 72.6166 139.844L68.7698 135.532C66.4419 132.922 65.278 131.617 64.4481 130.133C63.7121 128.817 63.1721 127.4 62.8452 125.928C62.4766 124.268 62.4766 122.519 62.4766 119.022L62.4766 72.9781C62.4766 69.4809 62.4766 67.7324 62.8452 66.0724C63.1721 64.6002 63.7121 63.1836 64.4481 61.8673C65.278 60.3832 66.4419 59.0783 68.7698 56.4685L72.6166 52.1558Z" fill="url(#paint1_linear_6302_65830)"/>
<path d="M71.1551 53.6163C75.2476 49.5238 77.2939 47.4775 79.6535 46.7109C81.729 46.0365 83.9648 46.0365 86.0403 46.7109C88.3999 47.4775 90.4462 49.5238 94.5387 53.6163L125.23 84.3073C129.322 88.3998 131.368 90.446 132.135 92.8056C132.809 94.8812 132.809 97.1169 132.135 99.1925C131.368 101.552 129.322 103.598 125.23 107.691L94.5387 138.382C90.4462 142.474 88.3999 144.521 86.0403 145.287C83.9648 145.962 81.729 145.962 79.6535 145.287C77.2939 144.521 75.2476 142.474 71.1551 138.382L52.156 119.383C43.9709 111.198 39.8784 107.105 38.3451 102.386C36.9963 98.2348 36.9963 93.7633 38.3451 89.6122C39.8784 84.893 43.9709 80.8005 52.156 72.6155L71.1551 53.6163Z" fill="url(#paint2_radial_6302_65830)"/>
<defs>
<radialGradient id="paint0_radial_6302_65830" cx="0" cy="0" r="1" gradientUnits="userSpaceOnUse" gradientTransform="translate(72.7447 156.953) rotate(-58.142) scale(97.9446 153.165)">
<stop stop-color="#FFD580"/>
<stop offset="0.09375" stop-color="#F6C592"/>
<stop offset="0.205" stop-color="#EBB6A2"/>
<stop offset="0.324466" stop-color="#DFA5AF"/>
<stop offset="0.42875" stop-color="#D397BE"/>
<stop offset="0.53375" stop-color="#C486CB"/>
<stop offset="0.64875" stop-color="#B578D9"/>
<stop offset="0.77125" stop-color="#A166E5"/>
<stop offset="0.89125" stop-color="#8B57F2"/>
<stop offset="1" stop-color="#704CFF"/>
</radialGradient>
<linearGradient id="paint1_linear_6302_65830" x1="68.7036" y1="14.0356" x2="91.5214" y2="153.32" gradientUnits="userSpaceOnUse">
<stop stop-color="#6D4AFF"/>
<stop offset="0.392009" stop-color="#B39FFB" stop-opacity="0.978022"/>
<stop offset="1" stop-color="#FFE8DB" stop-opacity="0.8"/>
</linearGradient>
<radialGradient id="paint2_radial_6302_65830" cx="0" cy="0" r="1" gradientUnits="userSpaceOnUse" gradientTransform="translate(64.1411 145.027) rotate(-58.142) scale(78.7815 123.198)">
<stop stop-color="#FFD580"/>
<stop offset="0.09375" stop-color="#F6C592"/>
<stop offset="0.205" stop-color="#EBB6A2"/>
<stop offset="0.324466" stop-color="#DFA5AF"/>
<stop offset="0.42875" stop-color="#D397BE"/>
<stop offset="0.53375" stop-color="#C486CB"/>
<stop offset="0.64875" stop-color="#B578D9"/>
<stop offset="0.77125" stop-color="#A166E5"/>
<stop offset="0.89125" stop-color="#8B57F2"/>
<stop offset="1" stop-color="#704CFF"/>
</radialGradient>
</defs>
</svg>
